<svg width="27" height="27" viewBox="0 0 27 27" fill="none" xmlns="http://www.w3.org/2000/svg">
<path fill-rule="evenodd" clip-rule="evenodd" d="M15.0727 1.22758C14.6626 -0.409193 12.3391 -0.409193 11.9273 1.22758L11.8075 1.71017C11.7374 1.99063 11.5936 2.24722 11.3909 2.45332C11.1881 2.65941 10.934 2.8075 10.6547 2.88223C10.3754 2.95695 10.0813 2.95558 9.80272 2.87826C9.52416 2.80093 9.27138 2.65048 9.07059 2.4425L8.72467 2.08646C7.55194 0.873227 5.53887 2.03584 6.00291 3.65743L6.1379 4.13665C6.21722 4.4143 6.22088 4.70811 6.1485 4.98766C6.07612 5.2672 5.93034 5.52231 5.72624 5.72659C5.52214 5.93086 5.26715 6.07686 4.98766 6.14947C4.70818 6.22209 4.41437 6.21867 4.13665 6.13959L3.65743 6.00291C2.03753 5.53887 0.873227 7.55194 2.08646 8.72467L2.4425 9.07059C2.65048 9.27138 2.80093 9.52416 2.87826 9.80272C2.95558 10.0813 2.95695 10.3754 2.88223 10.6547C2.8075 10.934 2.65941 11.1881 2.45332 11.3909C2.24722 11.5936 1.99063 11.7374 1.71017 11.8075L1.22758 11.9273C-0.409193 12.3374 -0.409193 14.6609 1.22758 15.0727L1.71017 15.1925C1.99063 15.2626 2.24722 15.4064 2.45332 15.6091C2.65941 15.8119 2.8075 16.066 2.88223 16.3453C2.95695 16.6246 2.95558 16.9187 2.87826 17.1973C2.80093 17.4758 2.65048 17.7286 2.4425 17.9294L2.08646 18.2753C0.873227 19.4481 2.03584 21.4611 3.65743 20.9971L4.13665 20.8621C4.41447 20.7826 4.7085 20.7789 4.98825 20.8514C5.26799 20.9238 5.52326 21.0698 5.72759 21.2741C5.93193 21.4784 6.07788 21.7337 6.15032 22.0134C6.22276 22.2932 6.21906 22.5872 6.13959 22.865L6.00291 23.3426C5.53887 24.9625 7.55194 26.1268 8.72467 24.9135L9.07059 24.5575C9.27138 24.3495 9.52416 24.1991 9.80272 24.1217C10.0813 24.0444 10.3754 24.0431 10.6547 24.1178C10.934 24.1925 11.1881 24.3406 11.3909 24.5467C11.5936 24.7528 11.7374 25.0094 11.8075 25.2898L11.9273 25.7724C12.3374 27.4092 14.6609 27.4092 15.0727 25.7724L15.1925 25.2898C15.2626 25.0094 15.4064 24.7528 15.6091 24.5467C15.8119 24.3406 16.066 24.1925 16.3453 24.1178C16.6246 24.0431 16.9187 24.0444 17.1973 24.1217C17.4758 24.1991 17.7286 24.3495 17.9294 24.5575L18.2753 24.9135C19.4481 26.1268 21.4611 24.9642 20.9971 23.3426L20.8621 22.8634C20.7826 22.5855 20.7789 22.2915 20.8514 22.0118C20.9238 21.732 21.0698 21.4767 21.2741 21.2724C21.4784 21.0681 21.7337 20.9221 22.0134 20.8497C22.2932 20.7772 22.5872 20.7809 22.865 20.8604L23.3426 20.9971C24.9625 21.4611 26.1268 19.4481 24.9135 18.2753L24.5575 17.9294C24.3495 17.7286 24.1991 17.4758 24.1217 17.1973C24.0444 16.9187 24.0431 16.6246 24.1178 16.3453C24.1925 16.066 24.3406 15.8119 24.5467 15.6091C24.7528 15.4064 25.0094 15.2626 25.2898 15.1925L25.7724 15.0727C27.4092 14.6626 27.4092 12.3391 25.7724 11.9273L25.2898 11.8075C25.0094 11.7374 24.7528 11.5936 24.5467 11.3909C24.3406 11.1881 24.1925 10.934 24.1178 10.6547C24.0431 10.3754 24.0444 10.0813 24.1217 9.80272C24.1991 9.52416 24.3495 9.27138 24.5575 9.07059L24.9135 8.72467C26.1268 7.55194 24.9642 5.53887 23.3426 6.00291L22.8634 6.1379C22.5857 6.21722 22.2919 6.22088 22.0123 6.1485C21.7328 6.07612 21.4777 5.93034 21.2734 5.72624C21.0691 5.52214 20.9231 5.26715 20.8505 4.98766C20.7779 4.70818 20.7813 4.41437 20.8604 4.13665L20.9971 3.65743C21.4611 2.03753 19.4481 0.873227 18.2753 2.08646L17.9294 2.4425C17.7286 2.65048 17.4758 2.80093 17.1973 2.87826C16.9187 2.95558 16.6246 2.95695 16.3453 2.88223C16.066 2.8075 15.8119 2.65941 15.6091 2.45332C15.4064 2.24722 15.2626 1.99063 15.1925 1.71017L15.0727 1.22758ZM13.5 21.9319C14.6174 21.9477 15.7269 21.7413 16.7638 21.3246C17.8008 20.9079 18.7446 20.2893 19.5404 19.5046C20.3362 18.72 20.9681 17.7851 21.3995 16.7541C21.8308 15.7231 22.0529 14.6167 22.0529 13.4992C22.0529 12.3816 21.8308 11.2752 21.3995 10.2442C20.9681 9.21326 20.3362 8.2783 19.5404 7.49368C18.7446 6.70905 17.8008 6.09042 16.7638 5.67373C15.7269 5.25704 14.6174 5.0506 13.5 5.0664C11.2633 5.0664 9.11815 5.95494 7.53655 7.53655C5.95494 9.11815 5.0664 11.2633 5.0664 13.5C5.0664 15.7367 5.95494 17.8818 7.53655 19.4635C9.11815 21.0451 11.2633 21.9336 13.5 21.9336V21.9319Z" fill="#E7E3E3"/>
</svg>
