<svg width="18" height="16" viewBox="0 0 18 16" fill="none" xmlns="http://www.w3.org/2000/svg">
<path d="M18 8C18 12.4183 13.9706 16 9 16C4.02944 16 0 12.4183 0 8C0 3.58172 4.02944 0 9 0C13.9706 0 18 3.58172 18 8ZM1.72833 8C1.72833 11.5698 4.98397 14.4637 9 14.4637C13.016 14.4637 16.2717 11.5698 16.2717 8C16.2717 4.43019 13.016 1.53629 9 1.53629C4.98397 1.53629 1.72833 4.43019 1.72833 8Z" fill="#444444"/>
<path d="M13 7.99999C13 9.81928 11.2091 11.2941 9 11.2941C6.79086 11.2941 5 9.81928 5 7.99999C5 6.1807 6.79086 4.70587 9 4.70587C11.2091 4.70587 13 6.1807 13 7.99999ZM6.24079 7.99999C6.24079 9.25494 7.47613 10.2723 9 10.2723C10.5239 10.2723 11.7592 9.25494 11.7592 7.99999C11.7592 6.74504 10.5239 5.7277 9 5.7277C7.47613 5.7277 6.24079 6.74504 6.24079 7.99999Z" fill="#444444"/>
</svg>
