<svg width="38" height="31" viewBox="0 0 38 31" fill="none" xmlns="http://www.w3.org/2000/svg">
<path fill-rule="evenodd" clip-rule="evenodd" d="M5.26203 0.83667H5.11587C4.44649 0.83667 3.87064 0.83667 3.36203 0.929218C2.57466 1.07451 1.85474 1.38529 1.28205 1.82714C0.709367 2.26898 0.306264 2.82463 0.117411 3.43253C0.000488172 3.82529 0.000488281 4.26772 0.000488281 4.78689V10.4301C0.000488281 10.947 0.000488303 11.3917 0.120334 11.7844C0.308478 12.3924 0.710932 12.9484 1.2831 13.3906C1.85528 13.8329 2.57483 14.1442 3.36203 14.29C3.87064 14.3803 4.44356 14.3803 5.11587 14.3803H12.4236C13.0929 14.3803 13.6688 14.3803 14.1774 14.2877C14.9648 14.1424 15.6847 13.8317 16.2574 13.3898C16.8301 12.948 17.2332 12.3923 17.422 11.7844C17.5389 11.3917 17.5389 10.9492 17.5389 10.4301V4.78689C17.5389 4.26997 17.5389 3.82529 17.4191 3.43253C17.231 2.8245 16.8285 2.26857 16.2563 1.82633C15.6842 1.38408 14.9646 1.0728 14.1774 0.926961C13.6688 0.83667 13.0959 0.83667 12.4236 0.83667H5.26203ZM4.0431 3.12554C4.1688 3.10297 4.36464 3.09394 5.26203 3.09394H12.2774C13.1777 3.09394 13.3706 3.10071 13.4963 3.12554C13.7589 3.17403 13.999 3.27774 14.1899 3.42516C14.3808 3.57258 14.5151 3.75796 14.5779 3.96073C14.6071 4.05553 14.6159 4.20451 14.6159 4.89975V10.3172C14.6159 11.0124 14.6071 11.1614 14.5749 11.2585C14.5122 11.4612 14.3779 11.6466 14.187 11.794C13.996 11.9415 13.756 12.0452 13.4934 12.0937C13.3736 12.114 13.1806 12.123 12.2774 12.123H5.26203C4.36172 12.123 4.1688 12.1162 4.0431 12.0914C3.78052 12.0429 3.54047 11.9392 3.34956 11.7918C3.15865 11.6444 3.02436 11.459 2.96157 11.2562C2.93526 11.1637 2.92357 11.0147 2.92357 10.3172V4.89975C2.92357 4.20451 2.93233 4.05553 2.96449 3.95847C3.02728 3.7557 3.16158 3.57032 3.35248 3.4229C3.54339 3.27548 3.78345 3.17177 4.04603 3.12328L4.0431 3.12554ZM25.7236 0.83667H25.5774C24.908 0.83667 24.3322 0.83667 23.8236 0.929218C23.0362 1.07451 22.3163 1.38529 21.7436 1.82714C21.1709 2.26898 20.7678 2.82463 20.5789 3.43253C20.462 3.82529 20.462 4.26772 20.462 4.78689V10.4301C20.462 10.947 20.462 11.3917 20.5819 11.7844C20.77 12.3924 21.1725 12.9484 21.7446 13.3906C22.3168 13.8329 23.0364 14.1442 23.8236 14.29C24.3322 14.3803 24.9051 14.3803 25.5774 14.3803H32.8851C33.5545 14.3803 34.1303 14.3803 34.639 14.2877C35.4263 14.1424 36.1462 13.8317 36.7189 13.3898C37.2916 12.948 37.6947 12.3923 37.8836 11.7844C38.0005 11.3917 38.0005 10.9492 38.0005 10.4301V4.78689C38.0005 4.26997 38.0005 3.82529 37.8806 3.43253C37.6925 2.8245 37.29 2.26857 36.7179 1.82633C36.1457 1.38408 35.4262 1.0728 34.639 0.926961C34.1303 0.83667 33.5574 0.83667 32.8851 0.83667H25.7236ZM24.5046 3.12554C24.6303 3.10297 24.8262 3.09394 25.7236 3.09394H32.7389C33.6393 3.09394 33.8322 3.10071 33.9579 3.12554C34.2205 3.17403 34.4605 3.27774 34.6514 3.42516C34.8423 3.57258 34.9766 3.75796 35.0394 3.96073C35.0686 4.05553 35.0774 4.20451 35.0774 4.89975V10.3172C35.0774 11.0124 35.0657 11.1614 35.0365 11.2585C34.9737 11.4612 34.8394 11.6466 34.6485 11.794C34.4576 11.9415 34.2175 12.0452 33.9549 12.0937C33.8322 12.1162 33.6393 12.123 32.7389 12.123H25.7236C24.8233 12.123 24.6303 12.1162 24.5046 12.0914C24.2421 12.0429 24.002 11.9392 23.8111 11.7918C23.6202 11.6444 23.4859 11.459 23.4231 11.2562C23.3968 11.1637 23.3851 11.0147 23.3851 10.3172V4.89975C23.3851 4.20451 23.3939 4.05553 23.426 3.95847C23.4888 3.7557 23.6231 3.57032 23.814 3.4229C24.0049 3.27548 24.245 3.17177 24.5076 3.12328L24.5046 3.12554ZM5.11587 16.6375H12.4236C13.0929 16.6375 13.6688 16.6375 14.1774 16.7301C14.9648 16.8754 15.6847 17.1862 16.2574 17.628C16.8301 18.0699 17.2332 18.6255 17.422 19.2334C17.5389 19.6262 17.5389 20.0686 17.5389 20.5878V26.2309C17.5389 26.7478 17.5389 27.1925 17.4191 27.5853C17.231 28.1933 16.8285 28.7493 16.2563 29.1915C15.6842 29.6337 14.9646 29.945 14.1774 30.0909C13.6688 30.1812 13.0959 30.1812 12.4236 30.1812H5.11587C4.44649 30.1812 3.87064 30.1812 3.36203 30.0886C2.57466 29.9433 1.85474 29.6325 1.28205 29.1907C0.709367 28.7488 0.306264 28.1932 0.117411 27.5853C0.000488172 27.1925 0.000488281 26.7501 0.000488281 26.2309V20.5878C0.000488281 20.0709 0.000488303 19.6262 0.120334 19.2334C0.308478 18.6254 0.710932 18.0694 1.2831 17.6272C1.85528 17.185 2.57483 16.8737 3.36203 16.7278C3.87064 16.6375 4.44356 16.6375 5.11587 16.6375ZM5.26203 18.8948C4.36172 18.8948 4.1688 18.9016 4.0431 18.9264C3.78052 18.9749 3.54047 19.0786 3.34956 19.226C3.15865 19.3735 3.02436 19.5588 2.96157 19.7616C2.93526 19.8542 2.92357 20.0031 2.92357 20.7006V26.1181C2.92357 26.8133 2.93233 26.9623 2.96449 27.0594C3.02728 27.2621 3.16158 27.4475 3.35248 27.5949C3.54339 27.7423 3.78345 27.8461 4.04603 27.8945C4.1688 27.9171 4.36172 27.9239 5.26203 27.9239H12.2774C13.1777 27.9239 13.3706 27.9149 13.4963 27.8923C13.7589 27.8438 13.999 27.7401 14.1899 27.5927C14.3808 27.4452 14.5151 27.2599 14.5779 27.0571C14.6071 26.9623 14.6159 26.8133 14.6159 26.1181V20.7006C14.6159 20.0054 14.6071 19.8564 14.5749 19.7593C14.5122 19.5566 14.3779 19.3712 14.187 19.2238C13.996 19.0764 13.756 18.9726 13.4934 18.9242C13.3736 18.9038 13.1806 18.8948 12.2774 18.8948H5.26203ZM25.7236 16.6375H25.5774C24.908 16.6375 24.3322 16.6375 23.8236 16.7301C23.0362 16.8754 22.3163 17.1862 21.7436 17.628C21.1709 18.0699 20.7678 18.6255 20.5789 19.2334C20.462 19.6262 20.462 20.0686 20.462 20.5878V26.2309C20.462 26.7478 20.462 27.1925 20.5819 27.5853C20.77 28.1933 21.1725 28.7493 21.7446 29.1915C22.3168 29.6337 23.0364 29.945 23.8236 30.0909C24.3322 30.1834 24.908 30.1834 25.5774 30.1834H32.8851C33.5545 30.1834 34.1303 30.1834 34.639 30.0909C35.4258 29.9452 36.1451 29.6343 36.7172 29.1924C37.2894 28.7506 37.692 28.1952 37.8806 27.5876C38.0005 27.1948 38.0005 26.7501 38.0005 26.2332V20.5878C38.0005 20.0709 38.0005 19.6262 37.8806 19.2334C37.6925 18.6254 37.29 18.0694 36.7179 17.6272C36.1457 17.185 35.4262 16.8737 34.639 16.7278C34.1303 16.6375 33.5574 16.6375 32.8851 16.6375H25.7236ZM24.5046 18.9264C24.6303 18.9038 24.8262 18.8948 25.7236 18.8948H32.7389C33.6393 18.8948 33.8322 18.9016 33.9579 18.9264C34.2205 18.9749 34.4605 19.0786 34.6514 19.226C34.8423 19.3735 34.9766 19.5588 35.0394 19.7616C35.0686 19.8564 35.0774 20.0054 35.0774 20.7006V26.1181C35.0774 26.8133 35.0657 26.9623 35.0365 27.0594C34.9737 27.2621 34.8394 27.4475 34.6485 27.5949C34.4576 27.7423 34.2175 27.8461 33.9549 27.8945C33.8322 27.9171 33.6393 27.9239 32.7389 27.9239H25.7236C24.8233 27.9239 24.6303 27.9149 24.5046 27.8923C24.2421 27.8438 24.002 27.7401 23.8111 27.5927C23.6202 27.4452 23.4859 27.2599 23.4231 27.0571C23.3968 26.9645 23.3851 26.8156 23.3851 26.1181V20.7006C23.3851 20.0054 23.3939 19.8564 23.426 19.7593C23.4888 19.5566 23.6231 19.3712 23.814 19.2238C24.0049 19.0764 24.245 18.9726 24.5076 18.9242L24.5046 18.9264Z" fill="white"/>
</svg>
